<svg width="60" height="60" viewBox="0 0 60 60" fill="none" xmlns="http://www.w3.org/2000/svg">
<path d="M30 0C22.0435 0 14.4129 3.16071 8.7868 8.7868C3.16071 14.4129 0 22.0435 0 30C0 37.9565 3.16071 45.5871 8.7868 51.2132C14.4129 56.8393 22.0435 60 30 60C37.9565 60 45.5871 56.8393 51.2132 51.2132C56.8393 45.5871 60 37.9565 60 30C60 22.0435 56.8393 14.4129 51.2132 8.7868C45.5871 3.16071 37.9565 0 30 0V0ZM37.9075 54.4575H37.675C37.5004 54.4674 37.3256 54.4414 37.1613 54.3812C36.9971 54.321 36.8469 54.2279 36.72 54.1075C36.6027 53.9836 36.5114 53.8375 36.4513 53.6778C36.3912 53.5181 36.3635 53.348 36.37 53.1775V49.6625C36.385 48.495 36.395 47.3125 36.395 46.1225C36.3909 45.2523 36.2638 44.3871 36.0175 43.5525C35.7842 42.7088 35.3139 41.9497 34.6625 41.365C36.405 41.1968 38.1179 40.8009 39.7575 40.1875C41.1406 39.6616 42.3916 38.8389 43.4225 37.7775C44.44 36.71 45.1975 35.42 45.635 34.0125C46.1672 32.2888 46.4204 30.4911 46.385 28.6875C46.3947 27.4282 46.1745 26.1777 45.735 24.9975C45.2884 23.808 44.6132 22.7175 43.7475 21.7875C43.9344 21.3185 44.0702 20.8306 44.1525 20.3325C44.235 19.8325 44.2775 19.3275 44.2775 18.8225C44.2775 18.1725 44.2025 17.5225 44.0525 16.89C43.9162 16.2413 43.7315 15.6036 43.5 14.9825C43.4116 14.948 43.3174 14.931 43.2225 14.9325H42.9475C42.3725 14.9375 41.8075 15.0325 41.2625 15.21C40.6622 15.3852 40.0749 15.6024 39.505 15.86C38.9382 16.114 38.3865 16.4003 37.8525 16.7175C37.315 17.035 36.84 17.34 36.42 17.6225C32.2143 16.4503 27.7682 16.4503 23.5625 17.6225C23.0935 17.3089 22.6167 17.0072 22.1325 16.7175C21.5909 16.3977 21.0298 16.1121 20.4525 15.8625C19.8842 15.5964 19.2946 15.3781 18.69 15.21C18.1557 15.0335 17.5976 14.9399 17.035 14.9325H16.76C16.666 14.9312 16.5726 14.9482 16.485 14.9825C16.2502 15.6045 16.058 16.2418 15.91 16.89C15.775 17.525 15.71 18.1725 15.7075 18.8225C15.7075 19.3275 15.75 19.8325 15.835 20.3325C15.9175 20.83 16.05 21.3175 16.235 21.7875C15.3715 22.7187 14.6988 23.8101 14.255 25C13.8132 26.1798 13.5904 27.4302 13.5975 28.69C13.5625 30.4839 13.8089 32.2723 14.3275 33.99C14.78 35.3975 15.535 36.69 16.5375 37.78C17.575 38.835 18.825 39.655 20.2025 40.19C21.835 40.815 23.545 41.215 25.285 41.38C24.7992 41.8203 24.4138 42.36 24.155 42.9625C23.9088 43.5583 23.7408 44.1835 23.655 44.8225C22.7377 45.2617 21.7345 45.4922 20.7175 45.4975C19.773 45.5353 18.8409 45.2727 18.055 44.7475C17.3011 44.1888 16.6626 43.4892 16.175 42.6875C15.9568 42.3507 15.7127 42.0315 15.445 41.7325C15.1626 41.4181 14.8512 41.131 14.515 40.875C14.1836 40.6274 13.8203 40.4256 13.435 40.275C13.0559 40.1088 12.6465 40.0228 12.2325 40.0225C12.1325 40.025 12.0325 40.035 11.9325 40.0475C11.7959 40.0471 11.6599 40.0639 11.5275 40.0975C11.4112 40.128 11.3011 40.1787 11.2025 40.2475C11.1577 40.2722 11.1201 40.3084 11.0938 40.3523C11.0675 40.3962 11.0532 40.4463 11.0525 40.4975C11.063 40.6178 11.0998 40.7344 11.1603 40.8389C11.2207 40.9434 11.3034 41.0334 11.4025 41.1025C11.635 41.2875 11.8275 41.43 11.9825 41.53L12.0575 41.5825C12.39 41.84 12.71 42.1175 13.0125 42.415C13.2925 42.66 13.545 42.9375 13.7625 43.24C13.9875 43.5375 14.1825 43.855 14.34 44.1925C14.5225 44.5275 14.715 44.9125 14.9175 45.35C15.3875 46.535 16.2225 47.5375 17.3025 48.2125C18.435 48.82 19.705 49.1225 20.9925 49.09C21.4275 49.09 21.865 49.065 22.2975 49.015C22.7275 48.945 23.155 48.8725 23.585 48.7875V53.145C23.5928 53.3207 23.5634 53.4961 23.4988 53.6596C23.4342 53.8232 23.3358 53.9713 23.21 54.0942C23.0842 54.2171 22.9339 54.3121 22.7689 54.373C22.604 54.4339 22.428 54.4593 22.2525 54.4475H22.0975C16.2676 52.5641 11.3017 48.6612 8.09392 43.4415C4.88618 38.2218 3.64741 32.0284 4.6007 25.9764C5.55399 19.9245 8.63669 14.4118 13.2937 10.4309C17.9507 6.45005 23.8759 4.26268 30.0025 4.26268C36.1291 4.26268 42.0543 6.45005 46.7113 10.4309C51.3683 14.4118 54.451 19.9245 55.4043 25.9764C56.3576 32.0284 55.1188 38.2218 51.9111 43.4415C48.7033 48.6612 43.7374 52.5641 37.9075 54.4475V54.46V54.4575Z" fill="black"/>
</svg>
