<svg width="60" height="60" viewBox="0 0 60 60" fill="none" xmlns="http://www.w3.org/2000/svg">
<path d="M3.82619 4.16981C-0.882393 9.0572 0.0812945 14.249 0.0812945 30.0213C0.0812945 45.8286 -0.313168 48.7301 1.58425 52.662C3.16959 55.9502 6.19796 58.4201 9.76311 59.3407C12.6192 60.0741 14.5166 59.9718 29.9856 59.9718C42.9529 59.9718 46.9874 60.2039 50.3503 59.3357C55.3335 58.0508 59.388 54.0117 59.9423 46.9688C60.0197 45.9858 60.0197 14.0743 59.9398 13.0714C59.3506 5.56942 54.7294 1.24586 48.6402 0.370175C47.2421 0.168093 46.9624 0.108217 39.8022 0.0957431C14.4043 0.108217 8.83687 -1.02194 3.82619 4.16981Z" fill="url(#paint0_linear)"/>
<path d="M30.0006 8.24017C20.8724 8.24017 12.2042 7.44719 8.89335 15.7453C7.52575 19.1726 7.72436 23.6236 7.72436 29.9969C7.72436 35.5896 7.54084 40.8459 8.89335 44.2461C12.1967 52.5491 20.9352 51.7537 29.9955 51.7537C38.7366 51.7537 47.7491 52.6424 51.1002 44.2461C52.4703 40.7845 52.2692 36.3997 52.2692 29.9969C52.2692 21.4975 52.7494 16.0104 48.5285 11.8909C44.2547 7.71724 38.4751 8.24017 29.9905 8.24017H30.0006ZM28.0045 12.1609C38.9302 12.1437 47.641 10.6707 48.1312 21.2029C48.3123 25.104 48.3123 34.8801 48.1312 38.7811C47.6561 48.9377 39.7371 47.8231 30.0031 47.8231C21.4254 47.8231 17.1718 48.1202 14.3059 45.319C11.3973 42.4785 11.7442 38.4178 11.7442 29.9871C11.7442 19.9926 10.7763 12.7378 21.0031 12.2788C23.057 12.1879 23.8539 12.1609 28.0045 12.156V12.1609ZM41.8916 15.7723C40.4159 15.7723 39.2193 16.9409 39.2193 18.382C39.2193 19.8232 40.4159 20.9918 41.8916 20.9918C43.3673 20.9918 44.5639 19.8232 44.5639 18.382C44.5639 16.9409 43.3673 15.7723 41.8916 15.7723ZM30.0006 18.8239C23.683 18.8239 18.562 23.8274 18.562 29.9969C18.562 36.1665 23.683 41.1675 30.0006 41.1675C36.3181 41.1675 41.4366 36.1665 41.4366 29.9969C41.4366 23.8274 36.3181 18.8239 30.0006 18.8239ZM30.0006 22.7447C34.1008 22.7447 37.4243 25.9927 37.4243 29.9969C37.4243 34.0011 34.1008 37.2492 30.0006 37.2492C25.9003 37.2492 22.5768 34.0011 22.5768 29.9969C22.5768 25.9903 25.9003 22.7447 30.0006 22.7447Z" fill="white"/>
<defs>
<linearGradient id="paint0_linear" x1="3.98738" y1="56.0882" x2="59.5728" y2="7.94362" gradientUnits="userSpaceOnUse">
<stop stop-color="#FFDD55"/>
<stop offset="0.5" stop-color="#FF543E"/>
<stop offset="1" stop-color="#C837AB"/>
</linearGradient>
</defs>
</svg>
