<svg width="60" height="60" viewBox="0 0 60 60" fill="none" xmlns="http://www.w3.org/2000/svg">
<path d="M55.5657 0.00844655C46.3377 -0.0174481 12.3013 0.0261307 4.43432 0.00844655C1.98632 0.00844655 0 1.93412 0 4.30569V55.704C0 58.0762 1.98632 60 4.43432 60H55.5657C58.0149 60 60 58.0762 60 55.7034V4.30569C60 1.93412 58.0149 0.00844655 55.5657 0.00844655Z" fill="#0077B5"/>
<path d="M32.1809 50.2137C32.1809 50.2137 32.1809 35.1329 32.1809 35.1323C32.0931 32.3609 33.7497 29.7746 37.0832 29.6584C40.3314 29.6584 41.6312 32.1348 41.6312 35.7658V50.2131H50.6084V34.7275C50.6084 26.4317 46.1798 22.5715 40.2726 22.5715C35.4297 22.5715 33.3025 25.2778 32.1209 27.1214L32.1809 23.2056H23.2036C23.3204 25.7395 23.203 50.2137 23.203 50.2137H32.1809ZM18.2337 38.5018V23.205H9.25517V50.2131H18.2343C18.2324 47.3773 18.2375 41.2978 18.2337 38.5018ZM13.7463 19.5185C16.8764 19.5185 18.8255 17.4444 18.8255 14.853C18.7996 8.6023 8.7177 8.67178 8.72591 14.8524C8.71896 17.464 10.7217 19.5507 13.7463 19.5185Z" fill="#F1F1F1"/>
</svg>
