<?xml version="1.0" standalone="no"?>
<!DOCTYPE svg PUBLIC "-//W3C//DTD SVG 20010904//EN"
 "http://www.w3.org/TR/2001/REC-SVG-20010904/DTD/svg10.dtd">
<svg version="1.0" xmlns="http://www.w3.org/2000/svg"
 width="225.000000pt" height="225.000000pt" viewBox="0 0 225.000000 225.000000"
 preserveAspectRatio="xMidYMid meet">

<g transform="translate(0.000000,225.000000) scale(0.100000,-0.100000)"
fill="#000000" stroke="none">
<path d="M525 1730 c-123 -26 -239 -93 -326 -187 -69 -75 -101 -128 -135 -229
-23 -67 -27 -96 -28 -189 0 -97 4 -120 30 -195 66 -188 205 -327 393 -392 56
-20 85 -23 196 -22 114 0 138 3 197 26 101 38 173 85 242 159 72 76 107 135
144 239 21 63 25 93 25 185 0 174 -49 298 -169 425 -70 73 -143 121 -242 157
-52 20 -91 26 -177 29 -60 2 -128 -1 -150 -6z"/>
<path d="M1552 1689 c-154 -76 -256 -381 -224 -669 63 -561 453 -656 594 -145
18 68 21 106 21 250 0 144 -3 182 -21 250 -58 209 -165 335 -284 335 -24 0
-62 -10 -86 -21z"/>
<path d="M2078 1633 c-91 -103 -111 -707 -32 -950 42 -131 102 -98 139 76 59
280 29 784 -52 873 -20 23 -36 23 -55 1z"/>
</g>
</svg>
